# xmcd
#
# Track frame offsets:
#	150
#	16327
#	34637
#	52085
#	70022
#	84422
#	101002
#	121057
#	138965
#	154255
#	166382
#	184250
#	203410
#	221325
#	236512
#
# Disc length: 3431 seconds
#
# Revision: 0
# Processed by: cddbd v1.5.2PL0 Copyright (c) Steve Scherf et al.
# Submitted via: audiograbber 1.83.01
#
DISCID=c00d650f
DTITLE=Sound Choice - Country Hits - Vol. 156 SC8784
DYEAR=1900
DGENRE=Karaoke
TTITLE0=Steve Holy - I'm Not Breakin'
TTITLE1=Jennifer Hanson - Beautiful Goodbye
TTITLE2=LeAnn Rimes - Life Goes On (Country)
TTITLE3=Faith Hill - Cry
TTITLE4=Trick Pony - On A Mission
TTITLE5=Brooks and Dunn - Every River
TTITLE6=Andy Griggs and Martina McBride - Practice Life
TTITLE7=Aaron Lines - You Can't Hide Beautiful
TTITLE8=Aaron Tippin - If Her Lovin' Don't Kill Me
TTITLE9=The Dixie Chicks - White Trash Wedding
TTITLE10=Holly Lamar - These Are The Days
TTITLE11=Natalie Maines and Sheryl Crow - Abilene
TTITLE12=The Dixie Chicks - Landslide
TTITLE13=Cyndi Thompson - If You Could Only See
TTITLE14=George Strait - She'll Leave You With A Smile
EXTD=
EXTT0=
EXTT1=
EXTT2=
EXTT3=
EXTT4=
EXTT5=
EXTT6=
EXTT7=
EXTT8=
EXTT9=
EXTT10=
EXTT11=
EXTT12=
EXTT13=
EXTT14=
PLAYORDER=
